# xmcd
#
# Track frame offsets:
#	182
#	26375
#	46787
#	68457
#	77732
#	101032
#	121397
#
# Disc length: 1930 seconds
#
# Revision: 1
# Processed by: cddbd v1.4PL0 Copyright (c) Steve Scherf et al.
# Submitted via: audiograbber 1.81.03
#
DISCID=4b078807
DTITLE=Lightnin' Hopkins - The Lost Texas Tapes CD 3
DYEAR=1990
DGENRE=Blues
TTITLE0=I Heard My Baby Crying
TTITLE1=Chicken Mary
TTITLE2=My Baby Laid Out all Night
TTITLE3=Sam's Blues
TTITLE4=Goin' to Heaven When I Die
TTITLE5=You and Your Man Don't get Along
TTITLE6=Rock Me Late at Night
EXTD=CD 3 of 5
EXTT0=
EXTT1=
EXTT2=
EXTT3=
EXTT4=
EXTT5=
EXTT6=
PLAYORDER=
